<svg width="340" height="157" viewBox="0 0 340 157" fill="none" xmlns="http://www.w3.org/2000/svg">
<path fill-rule="evenodd" clip-rule="evenodd" d="M170.353 33.3157C170.305 33.1599 170.161 33.0042 170.017 32.9522L168.959 32.6407C168.767 32.5888 168.526 32.6926 168.43 32.9003L166.603 36.2753C166.122 37.2099 166.411 37.5215 167.276 37.0023L170.449 35.0292C170.642 34.9253 170.738 34.6657 170.69 34.458L170.353 33.3157V33.3157ZM178.622 23.6583C178.67 23.8141 178.815 23.9698 178.959 24.0218L180.017 24.3333C180.209 24.3852 180.449 24.2814 180.545 24.0737L182.372 20.6468C182.853 19.7121 182.565 19.4006 181.699 19.9198L178.526 21.8929C178.334 21.9968 178.238 22.2564 178.286 22.4641L178.622 23.6583V23.6583ZM168.43 24.1254C168.526 24.3331 168.767 24.4369 168.959 24.385L170.017 24.0735C170.161 24.0215 170.305 23.8658 170.353 23.71L170.642 22.5677C170.69 22.36 170.594 22.1004 170.401 21.9965L167.276 19.9715C166.411 19.4523 166.122 19.7639 166.603 20.6985L168.43 24.1254ZM180.545 32.8486C180.449 32.6409 180.209 32.5371 180.017 32.589L178.959 32.9005C178.815 32.9525 178.67 33.1082 178.622 33.264L178.334 34.4582C178.286 34.6659 178.382 34.9255 178.574 35.0294L181.747 37.0025C182.613 37.5217 182.901 37.2101 182.42 36.2755L180.545 32.8486V32.8486ZM185.401 28.0717L177.517 25.7871C177.228 25.7352 177.036 25.4756 176.988 25.216L174.872 16.7006C174.632 15.8179 174.296 15.8179 174.055 16.7006L171.94 25.216C171.892 25.5275 171.651 25.7352 171.411 25.7871L163.574 28.0717C162.757 28.3314 162.757 28.6948 163.574 28.9544L171.459 31.2391C171.747 31.291 171.94 31.5506 171.988 31.8102L174.103 40.3256C174.344 41.2083 174.68 41.2083 174.921 40.3256L177.036 31.8102C177.084 31.4987 177.324 31.291 177.565 31.2391L185.449 28.9544C186.219 28.6948 186.219 28.2794 185.401 28.0717ZM174.488 30.5641C173.43 30.5641 172.565 29.6295 172.565 28.4872C172.565 27.3448 173.43 26.4102 174.488 26.4102C175.546 26.4102 176.411 27.3448 176.411 28.4872C176.411 29.6295 175.546 30.5641 174.488 30.5641Z" fill="#6268ED"/>
<path fill-rule="evenodd" clip-rule="evenodd" d="M13.3533 19.3157C13.3052 19.1599 13.161 19.0042 13.0168 18.9522L11.9591 18.6407C11.7668 18.5888 11.5264 18.6926 11.4302 18.9003L9.60332 22.2753C9.12255 23.2099 9.41101 23.5215 10.2764 23.0023L13.4495 21.0292C13.6418 20.9253 13.7379 20.6657 13.6899 20.458L13.3533 19.3157V19.3157ZM21.6226 9.65829C21.6707 9.81406 21.8149 9.96983 21.9591 10.0218L23.0168 10.3333C23.2091 10.3852 23.4495 10.2814 23.5457 10.0737L25.3726 6.64675C25.8534 5.71214 25.5649 5.4006 24.6995 5.91983L21.5264 7.8929C21.3341 7.99675 21.238 8.25637 21.286 8.46406L21.6226 9.65829V9.65829ZM11.4302 10.1254C11.5264 10.3331 11.7668 10.4369 11.9591 10.385L13.0168 10.0735C13.161 10.0215 13.3052 9.86578 13.3533 9.71001L13.6418 8.5677C13.6899 8.36001 13.5937 8.10039 13.4014 7.99655L10.2764 5.97155C9.41101 5.45232 9.12255 5.76386 9.60332 6.69847L11.4302 10.1254ZM23.5458 18.8486C23.4496 18.6409 23.2092 18.5371 23.0169 18.589L21.9592 18.9005C21.815 18.9525 21.6708 19.1082 21.6227 19.264L21.3342 20.4582C21.2861 20.6659 21.3823 20.9255 21.5746 21.0294L24.7477 23.0025C25.6131 23.5217 25.9015 23.2101 25.4208 22.2755L23.5458 18.8486V18.8486ZM28.4015 14.0717L20.5168 11.7871C20.2284 11.7352 20.0361 11.4756 19.988 11.216L17.8726 2.70059C17.6322 1.8179 17.2957 1.8179 17.0553 2.70059L14.9399 11.216C14.8918 11.5275 14.6515 11.7352 14.4111 11.7871L6.57453 14.0717C5.75722 14.3314 5.75722 14.6948 6.57453 14.9544L14.4591 17.2391C14.7476 17.291 14.9399 17.5506 14.988 17.8102L17.1034 26.3256C17.3438 27.2083 17.6803 27.2083 17.9207 26.3256L20.0361 17.8102C20.0841 17.4987 20.3245 17.291 20.5649 17.2391L28.4495 14.9544C29.2188 14.6948 29.2188 14.2794 28.4015 14.0717ZM17.488 16.5641C16.4303 16.5641 15.565 15.6295 15.565 14.4872C15.565 13.3448 16.4303 12.4102 17.488 12.4102C18.5457 12.4102 19.4111 13.3448 19.4111 14.4872C19.4111 15.6295 18.5457 16.5641 17.488 16.5641Z" fill="#6268ED"/>
<path fill-rule="evenodd" clip-rule="evenodd" d="M25.3533 121.316C25.3052 121.16 25.161 121.004 25.0168 120.952L23.9591 120.641C23.7668 120.589 23.5264 120.693 23.4302 120.9L21.6033 124.275C21.1225 125.21 21.411 125.521 22.2764 125.002L25.4495 123.029C25.6418 122.925 25.7379 122.666 25.6899 122.458L25.3533 121.316V121.316ZM33.6226 111.658C33.6707 111.814 33.8149 111.97 33.9591 112.022L35.0168 112.333C35.2091 112.385 35.4495 112.281 35.5457 112.074L37.3726 108.647C37.8534 107.712 37.5649 107.401 36.6995 107.92L33.5264 109.893C33.3341 109.997 33.238 110.256 33.286 110.464L33.6226 111.658V111.658ZM23.4302 112.125C23.5264 112.333 23.7668 112.437 23.9591 112.385L25.0168 112.073C25.161 112.022 25.3052 111.866 25.3533 111.71L25.6418 110.568C25.6899 110.36 25.5937 110.1 25.4014 109.997L22.2764 107.972C21.411 107.452 21.1225 107.764 21.6033 108.698L23.4302 112.125ZM35.5458 120.849C35.4496 120.641 35.2092 120.537 35.0169 120.589L33.9592 120.901C33.815 120.952 33.6708 121.108 33.6227 121.264L33.3342 122.458C33.2861 122.666 33.3823 122.926 33.5746 123.029L36.7477 125.002C37.6131 125.522 37.9015 125.21 37.4208 124.276L35.5458 120.849V120.849ZM40.4015 116.072L32.5168 113.787C32.2284 113.735 32.0361 113.476 31.988 113.216L29.8726 104.701C29.6322 103.818 29.2957 103.818 29.0553 104.701L26.9399 113.216C26.8918 113.528 26.6515 113.735 26.4111 113.787L18.5745 116.072C17.7572 116.331 17.7572 116.695 18.5745 116.954L26.4591 119.239C26.7476 119.291 26.9399 119.551 26.988 119.81L29.1034 128.326C29.3438 129.208 29.6803 129.208 29.9207 128.326L32.0361 119.81C32.0841 119.499 32.3245 119.291 32.5649 119.239L40.4495 116.954C41.2188 116.695 41.2188 116.279 40.4015 116.072ZM29.488 118.564C28.4303 118.564 27.565 117.629 27.565 116.487C27.565 115.345 28.4303 114.41 29.488 114.41C30.5457 114.41 31.4111 115.345 31.4111 116.487C31.4111 117.629 30.5457 118.564 29.488 118.564Z" fill="#6268ED"/>
<path fill-rule="evenodd" clip-rule="evenodd" d="M309.353 18.3157C309.305 18.1599 309.161 18.0042 309.017 17.9522L307.959 17.6407C307.767 17.5888 307.526 17.6926 307.43 17.9003L305.603 21.2753C305.122 22.2099 305.411 22.5215 306.276 22.0023L309.449 20.0292C309.642 19.9253 309.738 19.6657 309.69 19.458L309.353 18.3157V18.3157ZM317.622 8.65829C317.67 8.81406 317.815 8.96983 317.959 9.02175L319.017 9.33329C319.209 9.38521 319.449 9.28137 319.545 9.07367L321.372 5.64675C321.853 4.71214 321.565 4.4006 320.699 4.91983L317.526 6.8929C317.334 6.99675 317.238 7.25637 317.286 7.46406L317.622 8.65829V8.65829ZM307.43 9.12539C307.526 9.33309 307.767 9.43693 307.959 9.38501L309.017 9.07347C309.161 9.02155 309.305 8.86578 309.353 8.71001L309.642 7.5677C309.69 7.36001 309.594 7.10039 309.401 6.99655L306.276 4.97155C305.411 4.45232 305.122 4.76386 305.603 5.69847L307.43 9.12539ZM319.545 17.8486C319.449 17.6409 319.209 17.5371 319.017 17.589L317.959 17.9005C317.815 17.9525 317.67 18.1082 317.622 18.264L317.334 19.4582C317.286 19.6659 317.382 19.9255 317.574 20.0294L320.747 22.0025C321.613 22.5217 321.901 22.2101 321.42 21.2755L319.545 17.8486V17.8486ZM324.401 13.0717L316.517 10.7871C316.228 10.7352 316.036 10.4756 315.988 10.216L313.872 1.70059C313.632 0.817901 313.296 0.817901 313.055 1.70059L310.94 10.216C310.892 10.5275 310.651 10.7352 310.411 10.7871L302.574 13.0717C301.757 13.3314 301.757 13.6948 302.574 13.9544L310.459 16.2391C310.747 16.291 310.94 16.5506 310.988 16.8102L313.103 25.3256C313.344 26.2083 313.68 26.2083 313.921 25.3256L316.036 16.8102C316.084 16.4987 316.324 16.291 316.565 16.2391L324.449 13.9544C325.219 13.6948 325.219 13.2794 324.401 13.0717ZM313.488 15.5641C312.43 15.5641 311.565 14.6295 311.565 13.4872C311.565 12.3448 312.43 11.4102 313.488 11.4102C314.546 11.4102 315.411 12.3448 315.411 13.4872C315.411 14.6295 314.546 15.5641 313.488 15.5641Z" fill="#6268ED"/>
<path fill-rule="evenodd" clip-rule="evenodd" d="M284.353 121.316C284.305 121.16 284.161 121.004 284.017 120.952L282.959 120.641C282.767 120.589 282.526 120.693 282.43 120.9L280.603 124.275C280.122 125.21 280.411 125.521 281.276 125.002L284.449 123.029C284.642 122.925 284.738 122.666 284.69 122.458L284.353 121.316V121.316ZM292.622 111.658C292.67 111.814 292.815 111.97 292.959 112.022L294.017 112.333C294.209 112.385 294.449 112.281 294.545 112.074L296.372 108.647C296.853 107.712 296.565 107.401 295.699 107.92L292.526 109.893C292.334 109.997 292.238 110.256 292.286 110.464L292.622 111.658V111.658ZM282.43 112.125C282.526 112.333 282.767 112.437 282.959 112.385L284.017 112.073C284.161 112.022 284.305 111.866 284.353 111.71L284.642 110.568C284.69 110.36 284.594 110.1 284.401 109.997L281.276 107.972C280.411 107.452 280.122 107.764 280.603 108.698L282.43 112.125ZM294.545 120.849C294.449 120.641 294.209 120.537 294.017 120.589L292.959 120.901C292.815 120.952 292.67 121.108 292.622 121.264L292.334 122.458C292.286 122.666 292.382 122.926 292.574 123.029L295.747 125.002C296.613 125.522 296.901 125.21 296.42 124.276L294.545 120.849V120.849ZM299.401 116.072L291.517 113.787C291.228 113.735 291.036 113.476 290.988 113.216L288.872 104.701C288.632 103.818 288.296 103.818 288.055 104.701L285.94 113.216C285.892 113.528 285.651 113.735 285.411 113.787L277.574 116.072C276.757 116.331 276.757 116.695 277.574 116.954L285.459 119.239C285.747 119.291 285.94 119.551 285.988 119.81L288.103 128.326C288.344 129.208 288.68 129.208 288.921 128.326L291.036 119.81C291.084 119.499 291.324 119.291 291.565 119.239L299.449 116.954C300.219 116.695 300.219 116.279 299.401 116.072ZM288.488 118.564C287.43 118.564 286.565 117.629 286.565 116.487C286.565 115.345 287.43 114.41 288.488 114.41C289.546 114.41 290.411 115.345 290.411 116.487C290.411 117.629 289.546 118.564 288.488 118.564Z" fill="#6268ED"/>
<path fill-rule="evenodd" clip-rule="evenodd" d="M145.353 148.316C145.305 148.16 145.161 148.004 145.017 147.952L143.959 147.641C143.767 147.589 143.526 147.693 143.43 147.9L141.603 151.275C141.122 152.21 141.411 152.521 142.276 152.002L145.449 150.029C145.642 149.925 145.738 149.666 145.69 149.458L145.353 148.316V148.316ZM153.622 138.658C153.67 138.814 153.815 138.97 153.959 139.022L155.017 139.333C155.209 139.385 155.449 139.281 155.545 139.074L157.372 135.647C157.853 134.712 157.565 134.401 156.699 134.92L153.526 136.893C153.334 136.997 153.238 137.256 153.286 137.464L153.622 138.658V138.658ZM143.43 139.125C143.526 139.333 143.767 139.437 143.959 139.385L145.017 139.073C145.161 139.022 145.305 138.866 145.353 138.71L145.642 137.568C145.69 137.36 145.594 137.1 145.401 136.997L142.276 134.972C141.411 134.452 141.122 134.764 141.603 135.698L143.43 139.125ZM155.545 147.849C155.449 147.641 155.209 147.537 155.017 147.589L153.959 147.901C153.815 147.952 153.67 148.108 153.622 148.264L153.334 149.458C153.286 149.666 153.382 149.926 153.574 150.029L156.747 152.002C157.613 152.522 157.901 152.21 157.42 151.276L155.545 147.849V147.849ZM160.401 143.072L152.517 140.787C152.228 140.735 152.036 140.476 151.988 140.216L149.872 131.701C149.632 130.818 149.296 130.818 149.055 131.701L146.94 140.216C146.892 140.528 146.651 140.735 146.411 140.787L138.574 143.072C137.757 143.331 137.757 143.695 138.574 143.954L146.459 146.239C146.747 146.291 146.94 146.551 146.988 146.81L149.103 155.326C149.344 156.208 149.68 156.208 149.921 155.326L152.036 146.81C152.084 146.499 152.324 146.291 152.565 146.239L160.449 143.954C161.219 143.695 161.219 143.279 160.401 143.072ZM149.488 145.564C148.43 145.564 147.565 144.629 147.565 143.487C147.565 142.345 148.43 141.41 149.488 141.41C150.546 141.41 151.411 142.345 151.411 143.487C151.411 144.629 150.546 145.564 149.488 145.564Z" fill="#6268ED"/>
<path d="M23.4961 78.8262C23.4961 79.959 23.5547 80.8184 23.6719 81.4043C23.8086 81.9707 24.0332 82.4395 24.3457 82.8105C24.6777 83.1621 25.1465 83.4453 25.752 83.6602C26.3574 83.8555 27.1191 84.0117 28.0371 84.1289C28.9551 84.2266 30.166 84.2949 31.6699 84.334V87H6.38672V84.334C8.55469 84.2363 10.0977 84.1094 11.0156 83.9531C11.9531 83.7773 12.666 83.5234 13.1543 83.1914C13.6426 82.8594 13.9941 82.3906 14.209 81.7852C14.4434 81.1797 14.5605 80.1934 14.5605 78.8262V57.6445C14.5605 56.8438 14.4043 56.2676 14.0918 55.916C13.7988 55.5645 13.3887 55.3887 12.8613 55.3887C12.373 55.3887 11.6797 55.6133 10.7812 56.0625C9.90234 56.5117 8.44727 57.4297 6.41602 58.8164L4.62891 55.7109L19.9219 46.541H23.6719C23.5547 48.416 23.4961 51.0137 23.4961 54.334V78.8262ZM39.8438 56.6484V49.7051C44.7852 47.5957 49.2676 46.541 53.291 46.541C55.6934 46.541 57.8125 46.873 59.6484 47.5371C61.5039 48.2012 62.9297 49.1777 63.9258 50.4668C64.9414 51.7363 65.4492 53.2793 65.4492 55.0957C65.4492 56.7559 65.1172 58.2207 64.4531 59.4902C63.7891 60.7402 62.8516 61.834 61.6406 62.7715C60.4492 63.709 58.8965 64.627 56.9824 65.5254V65.7891C58.6816 66.082 60.2246 66.6484 61.6113 67.4883C63.0176 68.3281 64.1309 69.4512 64.9512 70.8574C65.791 72.2637 66.2109 73.8945 66.2109 75.75C66.2109 78.0156 65.6543 80.0371 64.541 81.8145C63.4473 83.5723 61.7773 84.959 59.5312 85.9746C57.2852 86.9707 54.5605 87.4688 51.3574 87.4688C49.1504 87.4688 46.9824 87.2734 44.8535 86.8828C42.7246 86.4727 40.8691 85.9062 39.2871 85.1836V77.8301H44.5605C45.127 80.0566 45.9277 81.6777 46.9629 82.6934C47.998 83.6895 49.3555 84.1875 51.0352 84.1875C55.1758 84.1875 57.2461 81.6289 57.2461 76.5117C57.2461 73.7578 56.5137 71.707 55.0488 70.3594C53.6035 69.0117 51.3965 68.3379 48.4277 68.3379H46.1133V64.998C49.5117 64.8613 52.0898 64.0703 53.8477 62.625C55.6055 61.1602 56.4844 59.0508 56.4844 56.2969C56.4844 54.1289 56.0449 52.498 55.166 51.4043C54.2871 50.291 53.0078 49.7344 51.3281 49.7344C50.3711 49.7344 49.4824 49.9492 48.6621 50.3789C47.8613 50.7891 47.1387 51.5215 46.4941 52.5762C45.8691 53.6113 45.4102 54.9688 45.1172 56.6484H39.8438ZM99.0234 48.5625V50.3789C94.7461 50.4766 91.2793 51.8047 88.623 54.3633C85.9668 56.9023 84.1992 60.5449 83.3203 65.291L83.6133 65.4082C85.1367 64.3535 86.6699 63.582 88.2129 63.0938C89.7559 62.6055 91.4453 62.3613 93.2812 62.3613C95.5273 62.3613 97.4512 62.8594 99.0527 63.8555C100.674 64.832 101.895 66.2188 102.715 68.0156C103.535 69.8125 103.945 71.9023 103.945 74.2852C103.945 76.8828 103.398 79.1777 102.305 81.1699C101.211 83.1426 99.5215 84.6855 97.2363 85.7988C94.9707 86.9121 92.1875 87.4688 88.8867 87.4688C85.8594 87.4688 83.252 86.8633 81.0645 85.6523C78.8965 84.4414 77.2363 82.6543 76.084 80.291C74.9316 77.9277 74.3555 75.0566 74.3555 71.6777C74.3555 67.1074 75.3125 62.9766 77.2266 59.2852C79.1602 55.5938 81.8945 52.625 85.4297 50.3789C88.9648 48.1328 92.9688 46.8535 97.4414 46.541L99.0234 48.5625ZM89.8242 66.4043C88.8672 66.4043 87.9688 66.5508 87.1289 66.8438C86.2891 67.1172 85.5469 67.498 84.9023 67.9863C84.2578 68.4551 83.8184 68.8457 83.584 69.1582C83.3691 69.4512 83.2129 69.8809 83.1152 70.4473C83.0176 71.0137 82.9688 72.0098 82.9688 73.4355C82.9688 77.0098 83.4668 79.6953 84.4629 81.4922C85.459 83.2891 86.9824 84.1875 89.0332 84.1875C90.2051 84.1875 91.1816 83.9629 91.9629 83.5137C92.7637 83.0645 93.4082 82.4395 93.8965 81.6387C94.3848 80.8184 94.7363 79.8418 94.9512 78.709C95.166 77.5566 95.2734 76.2871 95.2734 74.9004C95.2734 72.1074 94.8047 69.998 93.8672 68.5723C92.9492 67.127 91.6016 66.4043 89.8242 66.4043Z" fill="#FBFF27"/>
<path d="M133.359 61.9219L133.711 62.0098C135.488 60.3496 137.09 59.1777 138.516 58.4941C139.941 57.8105 141.396 57.4688 142.881 57.4688C144.326 57.4688 145.527 57.6543 146.484 58.0254C147.441 58.3965 148.252 58.9434 148.916 59.666C149.58 60.3691 150.117 61.2969 150.527 62.4492C152.5 60.6133 154.209 59.3242 155.654 58.582C157.119 57.8398 158.643 57.4688 160.225 57.4688C161.787 57.4688 163.076 57.6738 164.092 58.084C165.127 58.4941 165.977 59.1289 166.641 59.9883C167.305 60.8477 167.783 61.9219 168.076 63.2109C168.389 64.5 168.545 66.043 168.545 67.8398V78.5332C168.545 79.3926 168.555 80.2031 168.574 80.9648C168.613 81.707 168.691 82.3027 168.809 82.752C168.926 83.2012 169.082 83.5723 169.277 83.8652C169.492 84.1387 169.785 84.373 170.156 84.5684C170.527 84.7637 170.977 84.9297 171.504 85.0664V87H157.383V85.0664C158.262 84.8516 158.867 84.5391 159.199 84.1289C159.531 83.7188 159.756 83.1523 159.873 82.4297C160.01 81.707 160.078 80.418 160.078 78.5625V70.7109C160.078 68.9531 160.02 67.5273 159.902 66.4336C159.785 65.3203 159.561 64.4512 159.229 63.8262C158.896 63.2012 158.496 62.752 158.027 62.4785C157.578 62.2051 156.982 62.0684 156.24 62.0684C155.732 62.0684 155.264 62.1465 154.834 62.3027C154.404 62.459 153.965 62.7031 153.516 63.0352C153.086 63.3477 152.715 63.6699 152.402 64.002C152.09 64.334 151.836 64.7051 151.641 65.1152C151.465 65.5254 151.338 65.9844 151.26 66.4922C151.201 67 151.172 67.8301 151.172 68.9824V78.5332C151.172 79.8613 151.191 80.877 151.23 81.5801C151.289 82.2832 151.396 82.8496 151.553 83.2793C151.709 83.709 151.953 84.0703 152.285 84.3633C152.637 84.6367 153.174 84.8711 153.896 85.0664V87H139.951V85.0664C140.85 84.8516 141.465 84.5391 141.797 84.1289C142.148 83.7188 142.383 83.1621 142.5 82.459C142.617 81.7363 142.676 80.4375 142.676 78.5625V70.7109C142.676 69.4219 142.646 68.3379 142.588 67.459C142.549 66.5605 142.471 65.8379 142.354 65.291C142.236 64.7441 142.07 64.2656 141.855 63.8555C141.66 63.4453 141.426 63.1133 141.152 62.8594C140.898 62.6055 140.586 62.4102 140.215 62.2734C139.863 62.1367 139.414 62.0684 138.867 62.0684C138.145 62.0684 137.383 62.293 136.582 62.7422C135.801 63.1914 135.137 63.8164 134.59 64.6172C134.062 65.418 133.799 66.2773 133.799 67.1953V78.5332C133.799 80.3691 133.848 81.6582 133.945 82.4004C134.062 83.123 134.297 83.6992 134.648 84.1289C135 84.5391 135.615 84.8516 136.494 85.0664V87H122.461V85.0664C123.398 84.8125 124.043 84.4805 124.395 84.0703C124.766 83.6602 125.01 83.1035 125.127 82.4004C125.264 81.6973 125.332 80.418 125.332 78.5625V66.5215C125.332 65.0762 125.303 64.0117 125.244 63.3281C125.205 62.625 125.088 62.0684 124.893 61.6582C124.717 61.2285 124.434 60.8867 124.043 60.6328C123.672 60.3594 123.018 60.125 122.08 59.9297V57.9375L130.107 57.7031H133.799L133.359 61.9219ZM190.107 87.4688C187.236 87.4688 184.756 86.9707 182.666 85.9746C180.596 84.959 178.975 83.3477 177.803 81.1406C176.631 78.9141 176.045 76.0918 176.045 72.6738C176.045 70.0566 176.406 67.791 177.129 65.877C177.852 63.9629 178.857 62.3809 180.146 61.1309C181.436 59.8809 182.969 58.9629 184.746 58.377C186.543 57.7715 188.486 57.4688 190.576 57.4688C195.303 57.4688 198.867 58.7188 201.27 61.2188C203.672 63.6992 204.873 67.3418 204.873 72.1465C204.873 75.5449 204.277 78.3965 203.086 80.7012C201.895 82.9863 200.195 84.6855 197.988 85.7988C195.781 86.9121 193.154 87.4688 190.107 87.4688ZM184.951 72.0293C184.951 76.1699 185.41 79.2754 186.328 81.3457C187.266 83.3965 188.672 84.4219 190.547 84.4219C191.582 84.4219 192.441 84.1582 193.125 83.6309C193.828 83.1035 194.385 82.3418 194.795 81.3457C195.225 80.3496 195.527 79.1582 195.703 77.7715C195.879 76.3652 195.967 74.793 195.967 73.0547C195.967 68.8555 195.498 65.7207 194.561 63.6504C193.643 61.5605 192.275 60.5156 190.459 60.5156C189.131 60.5156 188.066 60.9355 187.266 61.7754C186.465 62.6152 185.879 63.875 185.508 65.5547C185.137 67.2344 184.951 69.3926 184.951 72.0293ZM212.197 55.1543C212.197 53.748 212.188 52.6738 212.168 51.9316C212.148 51.1895 212.09 50.5449 211.992 49.998C211.895 49.4512 211.738 49.0215 211.523 48.709C211.309 48.3965 211.016 48.1426 210.645 47.9473C210.293 47.752 209.707 47.5664 208.887 47.3906V45.457L217.061 45.0469H220.664V61.834L220.693 61.8633C221.865 60.7891 222.891 59.959 223.77 59.373C224.648 58.7871 225.586 58.3281 226.582 57.9961C227.578 57.6445 228.643 57.4688 229.775 57.4688C233.252 57.4688 235.859 58.6992 237.598 61.1602C239.336 63.6016 240.205 67.2637 240.205 72.1465C240.205 75.5254 239.688 78.3574 238.652 80.6426C237.637 82.9082 236.113 84.6172 234.082 85.7695C232.051 86.9023 229.551 87.4688 226.582 87.4688C223.496 87.4688 220.674 86.9121 218.115 85.7988L215.947 87.4688L212.197 86.9414V55.1543ZM220.664 77.3906C220.664 79.793 221.074 81.5703 221.895 82.7227C222.734 83.8555 224.023 84.4219 225.762 84.4219C227.559 84.4219 228.926 83.4844 229.863 81.6094C230.82 79.7148 231.299 77.0195 231.299 73.5234C231.299 69.6758 230.879 66.8047 230.039 64.9102C229.199 63.0156 227.891 62.0684 226.113 62.0684C225.254 62.0684 224.404 62.293 223.564 62.7422C222.725 63.1914 222.031 63.8359 221.484 64.6758C220.938 65.4961 220.664 66.4043 220.664 67.4004V77.3906ZM256.67 46.248V53.4258H248.643V46.248H256.67ZM245.537 85.0664C246.494 84.8125 247.148 84.4805 247.5 84.0703C247.871 83.6602 248.115 83.1035 248.232 82.4004C248.369 81.6973 248.438 80.418 248.438 78.5625V64.9395C248.438 63.9824 248.389 63.2109 248.291 62.625C248.213 62.0391 248.047 61.5703 247.793 61.2188C247.559 60.8672 247.227 60.6035 246.797 60.4277C246.387 60.2324 245.85 60.0664 245.186 59.9297V57.9375L253.242 57.7031H256.904V78.5332C256.904 79.627 256.914 80.4766 256.934 81.082C256.973 81.668 257.021 82.127 257.08 82.459C257.139 82.7715 257.217 83.0547 257.314 83.3086C257.432 83.5625 257.578 83.7969 257.754 84.0117C257.93 84.2266 258.184 84.4219 258.516 84.5977C258.848 84.7734 259.287 84.9297 259.834 85.0664V87H245.537V85.0664ZM275.391 78.5332C275.391 80.3887 275.449 81.668 275.566 82.3711C275.684 83.0742 275.918 83.6406 276.27 84.0703C276.641 84.4805 277.324 84.8125 278.32 85.0664V87H263.965V85.0664C264.551 84.9297 265.01 84.7734 265.342 84.5977C265.674 84.4023 265.928 84.1875 266.104 83.9531C266.299 83.6992 266.465 83.3867 266.602 83.0156C266.738 82.625 266.826 82.0977 266.865 81.4336C266.904 80.75 266.924 79.7832 266.924 78.5332V55.6816C266.924 54.002 266.904 52.7715 266.865 51.9902C266.846 51.1895 266.787 50.5254 266.689 49.998C266.611 49.4512 266.465 49.0215 266.25 48.709C266.055 48.377 265.771 48.1133 265.4 47.918C265.029 47.7227 264.434 47.5469 263.613 47.3906V45.457L271.729 45.0469H275.391V78.5332ZM309.463 81.668C307.471 83.7773 305.498 85.2715 303.545 86.1504C301.592 87.0293 299.346 87.4688 296.807 87.4688C292.256 87.4688 288.828 86.2285 286.523 83.748C284.238 81.248 283.096 77.5469 283.096 72.6445C283.096 69.4805 283.682 66.7559 284.854 64.4707C286.045 62.166 287.725 60.4277 289.893 59.2559C292.061 58.0645 294.58 57.4688 297.451 57.4688C299.229 57.4688 300.781 57.6738 302.109 58.084C303.457 58.4941 304.609 59.0703 305.566 59.8125C306.523 60.5352 307.314 61.4141 307.939 62.4492C308.682 63.6797 309.238 65.0859 309.609 66.668C310 68.2891 310.205 70.252 310.225 72.5566H291.65C291.67 76.0918 292.295 78.6992 293.525 80.3789C294.775 82.0391 296.67 82.8691 299.209 82.8691C300.693 82.8691 302.031 82.5957 303.223 82.0488C304.414 81.4824 305.703 80.4961 307.09 79.0898L309.463 81.668ZM301.553 69.3926C301.475 66.4043 301.084 64.1777 300.381 62.7129C299.678 61.248 298.545 60.5156 296.982 60.5156C295.479 60.5156 294.277 61.2773 293.379 62.8008C292.5 64.3242 291.973 66.5215 291.797 69.3926H301.553Z" fill="white"/>
</svg>
